HIERARCHY
ROOT Hips
{
	OFFSET 0.000000 71.427986 0.000000
	CHANNELS 6 Xposition Yposition Zposition Xrotation Yrotation Zrotation
	JOINT Pelvis
	{
		OFFSET 0.000000 0.000000 0.000000
		CHANNELS 3 Xrotation Yrotation Zrotation
		JOINT LeftUpLeg
		{
			OFFSET 6.797100 -2.508499 -1.318700
			CHANNELS 3 Xrotation Yrotation Zrotation
			JOINT LeftLeg
			{
				OFFSET 0.069008 -29.241863 0.690200
				CHANNELS 3 Xrotation Yrotation Zrotation
				JOINT LeftFoot
				{
					OFFSET -0.069008 -29.568123 -0.266800
					CHANNELS 3 Xrotation Yrotation Zrotation
					JOINT LeftToeBase
					{
						OFFSET 3.145500 -8.631000 16.059900
						CHANNELS 3 Xrotation Yrotation Zrotation
						End Site
						{
							OFFSET 0.000000 18.501587 0.000000
						}
					}
				}
			}
			JOINT Left_ShortSleeve
			{
				OFFSET 0.265923 -10.480953 1.153800
				CHANNELS 3 Xrotation Yrotation Zrotation
				End Site
				{
					OFFSET 1.725763 19.823879 0.000000
				}
			}
		}
		JOINT RightUpLeg
		{
			OFFSET -6.797100 -2.508499 -1.318700
			CHANNELS 3 Xrotation Yrotation Zrotation
			JOINT RightLeg
			{
				OFFSET -0.082453 -29.241932 0.688000
				CHANNELS 3 Xrotation Yrotation Zrotation
				JOINT RightFoot
				{
					OFFSET 0.082453 -29.568058 -0.264600
					CHANNELS 3 Xrotation Yrotation Zrotation
					JOINT RightToeBase
					{
						OFFSET -3.115300 -8.682800 16.113400
						CHANNELS 3 Xrotation Yrotation Zrotation
						End Site
						{
							OFFSET 0.000000 18.567114 0.000000
						}
					}
				}
			}
			JOINT Right_ShortSleeve
			{
				OFFSET -0.265923 -10.480953 1.153800
				CHANNELS 3 Xrotation Yrotation Zrotation
				End Site
				{
					OFFSET -1.725766 19.823910 0.000000
				}
			}
		}
	}
	JOINT Spine
	{
		OFFSET 0.000000 13.368103 0.470500
		CHANNELS 3 Xrotation Yrotation Zrotation
		JOINT Spine1
		{
			OFFSET 0.147000 13.837402 0.538800
			CHANNELS 3 Xrotation Yrotation Zrotation
			JOINT Spine2
			{
				OFFSET 0.168000 16.242897 -1.435500
				CHANNELS 3 Xrotation Yrotation Zrotation
				JOINT Neck
				{
					OFFSET 0.217200 18.631500 -1.679100
					CHANNELS 3 Xrotation Yrotation Zrotation
					JOINT Head
					{
						OFFSET 0.000000 6.599396 1.385900
						CHANNELS 3 Xrotation Yrotation Zrotation
						JOINT Hat
						{
							OFFSET -0.532200 27.220596 -10.096100
							CHANNELS 3 Xrotation Yrotation Zrotation
							End Site
							{
								OFFSET 0.000000 22.029861 0.000000
							}
						}
						JOINT HairD
						{
							OFFSET -10.777400 17.437393 -1.325900
							CHANNELS 3 Xrotation Yrotation Zrotation
							JOINT HairD1
							{
								OFFSET -3.290299 -11.051193 1.062200
								CHANNELS 3 Xrotation Yrotation Zrotation
								End Site
								{
									OFFSET 0.000000 11.579437 0.000000
								}
							}
						}
						JOINT HairB
						{
							OFFSET -10.777400 17.437393 1.467900
							CHANNELS 3 Xrotation Yrotation Zrotation
							JOINT HairB1
							{
								OFFSET -1.561200 -12.956299 3.590200
								CHANNELS 3 Xrotation Yrotation Zrotation
								End Site
								{
									OFFSET 0.000000 13.534866 0.000000
								}
							}
						}
						JOINT HairA
						{
							OFFSET 9.713100 17.437393 1.467900
							CHANNELS 3 Xrotation Yrotation Zrotation
							JOINT HairA1
							{
								OFFSET 1.561200 -12.956299 3.590200
								CHANNELS 3 Xrotation Yrotation Zrotation
								End Site
								{
									OFFSET 0.000000 13.534866 0.000000
								}
							}
						}
						JOINT HairC
						{
							OFFSET 9.713100 17.437393 -1.325900
							CHANNELS 3 Xrotation Yrotation Zrotation
							JOINT HairC1
							{
								OFFSET 3.290300 -11.051193 1.062200
								CHANNELS 3 Xrotation Yrotation Zrotation
								End Site
								{
									OFFSET 0.000000 11.579437 0.000000
								}
							}
						}
					}
				}
				JOINT LeftShoulder
				{
					OFFSET 5.101800 15.108002 -2.763700
					CHANNELS 3 Xrotation Yrotation Zrotation
					JOINT LeftArm
					{
						OFFSET 9.825497 2.506317 -1.597400
						CHANNELS 3 Xrotation Yrotation Zrotation
						JOINT LeftForeArm
						{
							OFFSET 21.966244 0.000000 0.000000
							CHANNELS 3 Xrotation Yrotation Zrotation
							JOINT LeftHand
							{
								OFFSET 33.879036 0.000000 0.000000
								CHANNELS 3 Xrotation Yrotation Zrotation
								JOINT LeftHandThumb1
								{
									OFFSET 6.715286 -2.359680 3.363841
									CHANNELS 3 Xrotation Yrotation Zrotation
									JOINT LeftHandThumb2
									{
										OFFSET 2.507072 -1.447464 1.447461
										CHANNELS 3 Xrotation Yrotation Zrotation
										JOINT LeftHandThumb3
										{
											OFFSET 2.898338 -1.673355 1.673357
											CHANNELS 3 Xrotation Yrotation Zrotation
											End Site
											{
												OFFSET -0.295959 3.727692 -0.131651
											}
										}
									}
								}
								JOINT LeftHandIndex1
								{
									OFFSET 14.190811 -0.254547 3.840278
									CHANNELS 3 Xrotation Yrotation Zrotation
									JOINT LeftHandIndex2
									{
										OFFSET 3.551727 0.000000 -0.000000
										CHANNELS 3 Xrotation Yrotation Zrotation
										JOINT LeftHandIndex3
										{
											OFFSET 2.894196 0.000000 0.000000
											CHANNELS 3 Xrotation Yrotation Zrotation
											End Site
											{
												OFFSET -1.000603 2.690872 0.366626
											}
										}
									}
								}
								JOINT LeftHandMiddle1
								{
									OFFSET 13.776489 0.000000 0.000000
									CHANNELS 3 Xrotation Yrotation Zrotation
									JOINT LeftHandMiddle2
									{
										OFFSET 3.438232 0.000000 0.000000
										CHANNELS 3 Xrotation Yrotation Zrotation
										JOINT LeftHandMiddle3
										{
											OFFSET 3.691551 0.000000 0.000000
											CHANNELS 3 Xrotation Yrotation Zrotation
											End Site
											{
												OFFSET -1.082298 3.499527 0.457670
											}
										}
									}
								}
								JOINT LeftHandRing1
								{
									OFFSET 13.966164 -0.268127 -3.067488
									CHANNELS 3 Xrotation Yrotation Zrotation
									JOINT LeftHandRing2
									{
										OFFSET 3.162567 0.000000 0.000000
										CHANNELS 3 Xrotation Yrotation Zrotation
										JOINT LeftHandRing3
										{
											OFFSET 3.324348 0.000000 0.000000
											CHANNELS 3 Xrotation Yrotation Zrotation
											End Site
											{
												OFFSET -0.861900 3.184998 0.405154
											}
										}
									}
								}
								JOINT LeftHandPinky1
								{
									OFFSET 13.131393 -0.168503 -5.746925
									CHANNELS 3 Xrotation Yrotation Zrotation
									JOINT LeftHandPinky2
									{
										OFFSET 2.849182 0.000000 0.000000
										CHANNELS 3 Xrotation Yrotation Zrotation
										JOINT LeftHandPinky3
										{
											OFFSET 2.805038 0.000000 0.000000
											CHANNELS 3 Xrotation Yrotation Zrotation
											End Site
											{
												OFFSET -0.882500 2.642609 0.325652
											}
										}
									}
								}
							}
							JOINT Left_Sleeve
							{
								OFFSET 6.592125 -0.646545 0.805568
								CHANNELS 3 Xrotation Yrotation Zrotation
								End Site
								{
									OFFSET -0.000179 20.275787 -0.000000
								}
							}
						}
					}
				}
				JOINT RightShoulder
				{
					OFFSET -5.731700 15.108002 -2.763700
					CHANNELS 3 Xrotation Yrotation Zrotation
					JOINT RightArm
					{
						OFFSET -9.825497 2.506317 -1.597400
						CHANNELS 3 Xrotation Yrotation Zrotation
						JOINT RightForeArm
						{
							OFFSET -21.966242 0.000000 0.000000
							CHANNELS 3 Xrotation Yrotation Zrotation
							JOINT RightHand
							{
								OFFSET -33.879032 0.000000 0.000000
								CHANNELS 3 Xrotation Yrotation Zrotation
								JOINT RightHandThumb1
								{
									OFFSET -6.715286 -2.359680 3.363841
									CHANNELS 3 Xrotation Yrotation Zrotation
									JOINT RightHandThumb2
									{
										OFFSET -2.507072 -1.447464 1.447461
										CHANNELS 3 Xrotation Yrotation Zrotation
										JOINT RightHandThumb3
										{
											OFFSET -2.898338 -1.673355 1.673357
											CHANNELS 3 Xrotation Yrotation Zrotation
											End Site
											{
												OFFSET 0.295959 3.727692 -0.131651
											}
										}
									}
								}
								JOINT RightHandIndex1
								{
									OFFSET -14.190811 -0.254547 3.840278
									CHANNELS 3 Xrotation Yrotation Zrotation
									JOINT RightHandIndex2
									{
										OFFSET -3.551727 0.000000 -0.000000
										CHANNELS 3 Xrotation Yrotation Zrotation
										JOINT RightHandIndex3
										{
											OFFSET -2.894196 0.000000 0.000000
											CHANNELS 3 Xrotation Yrotation Zrotation
											End Site
											{
												OFFSET 1.000603 2.690872 0.366626
											}
										}
									}
								}
								JOINT RightHandMiddle1
								{
									OFFSET -13.776489 0.000000 0.000000
									CHANNELS 3 Xrotation Yrotation Zrotation
									JOINT RightHandMiddle2
									{
										OFFSET -3.438232 0.000000 0.000000
										CHANNELS 3 Xrotation Yrotation Zrotation
										JOINT RightHandMiddle3
										{
											OFFSET -3.691551 0.000000 0.000000
											CHANNELS 3 Xrotation Yrotation Zrotation
											End Site
											{
												OFFSET 1.082298 3.499527 0.457670
											}
										}
									}
								}
								JOINT RightHandRing1
								{
									OFFSET -13.966164 -0.268127 -3.067488
									CHANNELS 3 Xrotation Yrotation Zrotation
									JOINT RightHandRing2
									{
										OFFSET -3.162567 0.000000 0.000000
										CHANNELS 3 Xrotation Yrotation Zrotation
										JOINT RightHandRing3
										{
											OFFSET -3.324348 0.000000 0.000000
											CHANNELS 3 Xrotation Yrotation Zrotation
											End Site
											{
												OFFSET 0.861900 3.184998 0.405154
											}
										}
									}
								}
								JOINT RightHandPinky1
								{
									OFFSET -13.131393 -0.168503 -5.746925
									CHANNELS 3 Xrotation Yrotation Zrotation
									JOINT RightHandPinky2
									{
										OFFSET -2.849182 0.000000 0.000000
										CHANNELS 3 Xrotation Yrotation Zrotation
										JOINT RightHandPinky3
										{
											OFFSET -2.805038 0.000000 0.000000
											CHANNELS 3 Xrotation Yrotation Zrotation
											End Site
											{
												OFFSET 0.882500 2.642609 0.325652
											}
										}
									}
								}
							}
							JOINT Right_Sleeve
							{
								OFFSET -6.592125 -0.646545 0.805568
								CHANNELS 3 Xrotation Yrotation Zrotation
								End Site
								{
									OFFSET 0.000179 20.275787 -0.000000
								}
							}
						}
					}
				}
				JOINT Bind_Right_JacketString
				{
					OFFSET -3.534800 11.969597 7.200700
					CHANNELS 3 Xrotation Yrotation Zrotation
					JOINT Bind_Right_JacketString1
					{
						OFFSET -0.319900 -6.102600 2.794100
						CHANNELS 3 Xrotation Yrotation Zrotation
						End Site
						{
							OFFSET 0.000000 6.719452 0.000000
						}
					}
				}
				JOINT Bind_Left_JacketString
				{
					OFFSET 2.904800 11.969597 7.200700
					CHANNELS 3 Xrotation Yrotation Zrotation
					JOINT Bind_Left_JacketString1
					{
						OFFSET 0.364800 -5.904503 3.186800
						CHANNELS 3 Xrotation Yrotation Zrotation
						End Site
						{
							OFFSET 0.000000 6.719513 0.000000
						}
					}
				}
				JOINT HairE
				{
					OFFSET 5.915200 17.612701 -11.592200
					CHANNELS 3 Xrotation Yrotation Zrotation
					JOINT HairE1
					{
						OFFSET 0.289200 -7.171898 -1.284500
						CHANNELS 3 Xrotation Yrotation Zrotation
						End Site
						{
							OFFSET 0.000000 7.291756 0.000000
						}
					}
				}
				JOINT HairF
				{
					OFFSET -0.864800 17.612701 -11.592200
					CHANNELS 3 Xrotation Yrotation Zrotation
					JOINT HairF1
					{
						OFFSET 0.000000 -14.087097 -2.127501
						CHANNELS 3 Xrotation Yrotation Zrotation
						End Site
						{
							OFFSET 0.000000 14.246841 0.000000
						}
					}
				}
				JOINT HairG
				{
					OFFSET -8.087700 17.612701 -11.592200
					CHANNELS 3 Xrotation Yrotation Zrotation
					JOINT HairG1
					{
						OFFSET -0.293600 -6.081398 -0.910100
						CHANNELS 3 Xrotation Yrotation Zrotation
						End Site
						{
							OFFSET 0.000000 6.156120 0.000000
						}
					}
				}
			}
		}
	}
	JOINT Pouch
	{
		OFFSET 0.000000 4.394501 10.847300
		CHANNELS 3 Xrotation Yrotation Zrotation
		End Site
		{
			OFFSET 0.000000 21.880577 0.000000
		}
	}
	JOINT Bag
	{
		OFFSET -13.229000 4.813004 -0.593300
		CHANNELS 3 Xrotation Yrotation Zrotation
		End Site
		{
			OFFSET 0.000000 21.880577 0.000000
		}
	}
	JOINT OccupyGuyFacialAnim_Joint
	{
		OFFSET 1.000000 -70.206398 -1.655000
		CHANNELS 3 Xrotation Yrotation Zrotation
		End Site
		{
			OFFSET 0.000000 21.880577 0.000000
		}
	}
}
MOTION
Frames: 4
Frame Time: 0.033333
-1.795031 67.353928 0.424380 47.812765 -69.019977 48.214445 -0.000001 -0.000000 0.000000 -38.794720 1.516598 1.358812 35.187287 4.260132 1.217989 -12.244963 1.204184 -4.955716 0.000000 0.000001 0.000000 0.000002 0.000000 -0.000000 -34.877750 0.483039 -6.673678 32.630051 -0.472228 -11.579205 -12.833192 -2.482561 15.567447 0.000000 0.000001 0.000000 0.000000 0.000000 0.000000 6.643005 0.598308 1.340728 12.628856 1.139350 1.845139 12.626299 1.190887 1.890577 4.934793 -1.963355 -0.348444 17.929829 -11.001912 6.403681 -0.000001 0.000000 -0.000000 -0.000001 0.000000 -0.000000 -0.000001 0.000000 -0.000000 -0.000001 0.000000 -0.000000 0.000001 0.000000 -0.000000 -0.000001 0.000000 -0.000000 0.000001 0.000000 -0.000000 -0.000001 0.000000 -0.000000 -0.000001 0.000000 -0.000000 -3.995108 -23.538524 -2.785083 -23.492063 -25.246275 -80.053287 -0.000009 -38.389823 -0.000029 -46.247112 27.399662 10.001707 -9.235369 -2.147971 9.232401 8.361278 10.198097 10.706109 -0.000001 0.000002 0.000001 7.111134 8.625900 -76.996094 7.364107 5.652673 -105.011522 0.000001 -0.000000 -0.000000 3.373432 8.413133 -94.393406 6.012491 5.848837 -91.583623 0.000001 -0.000001 0.000001 4.133558 8.907531 -105.431715 3.631152 5.414957 -67.668077 -0.000001 0.000002 -0.000001 8.689883 7.507952 -118.302742 2.611862 4.875225 -56.338938 -0.000000 0.000000 0.000001 0.000002 -0.000003 -0.000001 -3.905349 29.217627 10.003087 -34.802990 -12.407189 69.791365 0.000003 29.841766 0.000005 -17.416381 -19.414934 -5.002431 4.421778 -7.563039 -15.368416 -6.711067 -17.341480 -6.658239 -0.000000 -0.000004 0.000000 4.590323 -12.053718 27.506118 4.617860 -4.656999 89.516022 0.000000 -0.000001 0.000002 6.643555 -8.911277 58.518206 4.914944 -4.650032 93.176484 0.000003 -0.000000 -0.000001 0.610993 -5.168789 56.810146 5.651364 -4.550074 102.339265 0.000000 -0.000001 0.000001 2.759736 -6.582559 55.834109 4.789087 -4.655314 91.625007 -0.000001 0.000000 0.000002 0.000000 -0.000001 0.000001 0.000001 0.000000 0.000001 0.000001 -0.000002 0.000001 0.000001 0.000000 0.000001 0.000001 0.000000 0.000001 0.000001 0.000000 0.000001 0.000001 -0.000002 0.000000 0.000001 0.000000 0.000001 0.000001 0.000000 0.000001 0.000001 0.000000 0.000001 0.000001 -0.000002 0.000000 -0.000001 -0.000000 0.000000 -0.000001 -0.000000 0.000000 -0.000001 -0.000000 0.000000 
-1.402773 67.230453 -0.041431 49.960966 -68.969502 50.224621 -0.000002 -0.000001 0.000000 -39.934965 1.461280 1.866512 35.404955 4.590848 1.354068 -11.763000 1.261366 -5.450172 -0.000000 0.000001 -0.000000 -0.000002 0.000000 -0.000000 -36.418094 0.739034 -6.029962 33.377434 -0.358950 -11.608579 -12.628463 -2.387568 15.177497 0.000000 -0.000000 0.000000 -0.000004 -0.000000 -0.000000 7.288490 0.959217 1.167981 12.262359 1.242009 1.549346 12.266288 1.255959 1.580893 4.699057 -1.921667 -0.759956 17.796413 -11.329617 6.528146 -0.000001 0.000000 -0.000000 -0.000001 0.000000 -0.000000 -0.000001 0.000000 -0.000000 -0.000001 0.000000 -0.000000 0.000001 -0.000000 -0.000000 -0.000001 0.000000 -0.000000 0.000001 -0.000000 -0.000000 -0.000001 0.000000 -0.000000 -0.000001 0.000000 -0.000000 -4.318097 -24.168611 -3.951910 -21.601240 -24.296311 -78.841297 -0.000013 -41.303417 -0.000011 -45.414423 28.007783 13.037982 -9.235380 -2.147957 9.232409 8.361298 10.198103 10.706122 -0.000001 -0.000000 -0.000001 7.111144 8.625902 -76.996101 7.364105 5.652672 -105.011515 0.000001 0.000001 -0.000002 3.373462 8.413160 -94.393412 6.012488 5.848836 -91.583623 -0.000000 0.000001 0.000001 4.133575 8.907544 -105.431722 3.631136 5.414954 -67.668057 -0.000002 0.000000 0.000000 8.689869 7.507968 -118.302756 2.611839 4.875219 -56.338914 -0.000001 0.000000 0.000001 0.000001 -0.000001 -0.000000 -3.677251 27.789164 10.484210 -35.529561 -10.798724 69.831977 0.000009 28.647920 -0.000011 -17.614727 -18.329904 -2.931403 4.421776 -7.563041 -15.368417 -6.711065 -17.341480 -6.658235 -0.000000 0.000002 0.000001 4.590322 -12.053717 27.506116 4.617861 -4.657002 89.516015 -0.000001 -0.000000 0.000000 6.643553 -8.911274 58.518206 4.914944 -4.650029 93.176498 0.000002 0.000000 0.000001 0.610994 -5.168788 56.810143 5.651365 -4.550073 102.339265 0.000001 -0.000001 -0.000001 2.759736 -6.582560 55.834105 4.789084 -4.655316 91.625021 -0.000003 0.000003 -0.000003 -0.000002 -0.000001 -0.000001 0.000000 0.000000 -0.000000 0.000000 0.000000 0.000000 0.000000 0.000000 -0.000001 0.000000 0.000000 -0.000001 0.000000 0.000000 -0.000000 0.000000 0.000000 -0.000000 0.000000 0.000000 -0.000001 0.000000 0.000000 -0.000001 0.000000 0.000000 -0.000000 0.000000 0.000000 -0.000000 -0.000002 -0.000001 0.000000 -0.000002 -0.000001 0.000000 -0.000002 -0.000001 0.000000 
-1.009665 67.099739 -0.501981 53.165421 -69.086762 53.117784 0.000001 -0.000000 -0.000000 -41.188858 1.365803 2.631434 35.791475 5.211550 1.521661 -11.394813 1.333586 -6.059826 -0.000000 -0.000001 -0.000000 0.000002 -0.000000 0.000000 -38.006881 0.947845 -5.063436 33.905284 0.014309 -11.746050 -12.267498 -2.260161 14.764992 -0.000000 0.000000 0.000000 -0.000000 0.000001 -0.000000 7.922908 1.205141 0.880218 11.867783 1.287247 1.232676 11.874374 1.270826 1.251118 4.434435 -1.824215 -1.155757 17.467510 -11.356277 6.397065 -0.000003 0.000000 -0.000000 -0.000003 0.000000 -0.000000 -0.000003 0.000000 -0.000000 -0.000003 0.000000 -0.000000 -0.000001 0.000000 -0.000000 -0.000003 0.000000 -0.000000 -0.000001 0.000000 -0.000000 -0.000003 0.000000 -0.000000 -0.000003 0.000000 -0.000000 -4.549315 -24.849874 -4.788454 -19.829474 -23.327787 -77.626575 -0.000013 -44.091986 -0.000012 -44.024729 29.176690 14.966845 -9.235380 -2.147950 9.232414 8.361292 10.198118 10.706139 -0.000000 -0.000000 0.000001 7.111159 8.625923 -76.996101 7.364097 5.652674 -105.011522 0.000001 0.000000 0.000003 3.373448 8.413150 -94.393412 6.012488 5.848837 -91.583623 0.000001 -0.000001 0.000000 4.133581 8.907541 -105.431722 3.631142 5.414941 -67.668050 -0.000000 -0.000000 -0.000000 8.689889 7.507959 -118.302729 2.611858 4.875227 -56.338914 -0.000000 -0.000003 -0.000001 -0.000000 0.000000 0.000002 -3.412890 26.205054 10.987025 -35.727292 -9.046679 70.194134 -0.000010 28.219483 0.000004 -18.851213 -17.394386 -2.008449 4.421773 -7.563042 -15.368414 -6.711066 -17.341476 -6.658235 0.000000 0.000003 -0.000001 4.590323 -12.053721 27.506118 4.617862 -4.656996 89.516022 -0.000001 -0.000000 0.000004 6.643554 -8.911276 58.518206 4.914941 -4.650034 93.176491 0.000001 0.000001 -0.000002 0.610993 -5.168789 56.810146 5.651364 -4.550074 102.339258 -0.000000 0.000000 -0.000002 2.759736 -6.582559 55.834112 4.789086 -4.655316 91.625007 0.000001 0.000000 0.000001 -0.000001 -0.000001 -0.000001 0.000001 -0.000001 0.000001 0.000001 0.000000 -0.000000 0.000001 -0.000001 0.000001 0.000001 -0.000001 0.000001 0.000001 -0.000001 0.000001 0.000001 0.000000 -0.000000 0.000001 -0.000001 0.000001 0.000001 -0.000001 0.000001 0.000001 -0.000001 0.000001 0.000001 0.000000 -0.000000 0.000001 -0.000000 -0.000000 0.000001 -0.000000 -0.000000 0.000001 -0.000000 -0.000000 
-0.630104 66.966957 -0.911438 57.467149 -69.373863 56.953659 0.000001 0.000001 -0.000000 -42.463218 1.215540 3.621461 36.368172 6.145591 1.702501 -11.178796 1.433594 -6.752509 -0.000000 0.000001 0.000000 -0.000000 -0.000001 -0.000000 -39.544220 1.003169 -3.841750 34.193010 0.779853 -11.990007 -11.762548 -2.103585 14.333903 -0.000000 -0.000000 -0.000000 0.000000 -0.000001 -0.000001 8.557384 1.308702 0.507535 11.438165 1.265985 0.928527 11.441281 1.236393 0.931986 4.176150 -1.670416 -1.426619 16.919924 -10.905001 5.759946 -0.000002 0.000000 -0.000000 -0.000002 0.000000 -0.000000 -0.000002 0.000000 -0.000000 -0.000002 0.000000 -0.000000 0.000000 0.000000 -0.000000 -0.000002 0.000000 -0.000000 0.000000 0.000000 -0.000000 -0.000002 0.000000 -0.000000 -0.000002 0.000000 -0.000000 -4.793214 -25.559816 -5.626174 -18.228178 -22.121477 -76.453101 0.000021 -46.620341 0.000021 -41.338330 30.907395 15.305933 -9.235365 -2.147990 9.232377 8.361261 10.198129 10.706135 -0.000000 0.000004 0.000001 7.111146 8.625902 -76.996101 7.364102 5.652686 -105.011529 0.000001 0.000000 -0.000000 3.373439 8.413137 -94.393412 6.012488 5.848838 -91.583623 -0.000001 -0.000001 0.000000 4.133567 8.907523 -105.431708 3.631152 5.414948 -67.668064 -0.000000 -0.000000 -0.000002 8.689864 7.507942 -118.302742 2.611835 4.875240 -56.338952 0.000000 -0.000000 -0.000001 0.000000 -0.000001 0.000001 -3.113061 24.510991 11.498582 -35.299487 -7.713831 70.793251 0.000005 28.992613 -0.000003 -20.729855 -16.559491 -2.262056 4.421777 -7.563040 -15.368411 -6.711067 -17.341480 -6.658238 0.000000 -0.000001 0.000000 4.590324 -12.053720 27.506119 4.617863 -4.657000 89.516015 -0.000000 -0.000000 0.000000 6.643553 -8.911274 58.518206 4.914942 -4.650032 93.176491 0.000001 -0.000001 0.000003 0.610992 -5.168791 56.810146 5.651365 -4.550074 102.339258 0.000000 0.000000 -0.000002 2.759736 -6.582560 55.834109 4.789087 -4.655316 91.625014 -0.000001 0.000001 0.000001 0.000003 -0.000000 -0.000001 -0.000001 0.000000 -0.000000 -0.000003 0.000000 0.000000 -0.000001 0.000000 -0.000000 -0.000001 0.000000 -0.000000 -0.000001 0.000000 -0.000000 -0.000003 0.000000 -0.000000 -0.000001 0.000000 -0.000000 -0.000001 0.000000 -0.000000 -0.000001 0.000000 -0.000000 -0.000003 0.000000 -0.000000 0.000001 0.000001 -0.000000 0.000001 0.000001 -0.000000 0.000001 0.000001 -0.000000 
